<mxfile host="app.diagrams.net" modified="2023-04-20T10:53:47.773Z" agent="Mozilla/5.0 (Macintosh; Intel Mac OS X 10.15; rv:109.0) Gecko/20100101 Firefox/112.0" version="21.2.1" etag="O7TD5hzyPg8HdKiz6gE7" type="github">
  <diagram name="Page-1" id="dDrE8DN9dDIvWWbZ7LqO">
    <mxGraphModel>
      <root>
        <mxCell id="0" />
        <mxCell id="1" parent="0" />
      </root>
    </mxGraphModel>
  </diagram>
</mxfile>
